<svg xmlns="http://www.w3.org/2000/svg" viewBox="0 0 80 80" role="img" aria-labelledby="mark-title mark-desc">
<title id="mark-title">Universal Law</title><desc id="mark-desc">A gold field profile above blue contours on navy. Decorative research identity, not data.</desc>
<rect width="80" height="80" rx="20" fill="#07111f"/>
<circle cx="40" cy="40" r="34" fill="none" stroke="#e9c675" stroke-width="1.6"/>
<ellipse cx="40" cy="56" rx="23" ry="6" fill="none" stroke="#78c1ff" stroke-width="1.4"/>
<ellipse cx="40" cy="56" rx="14" ry="3.4" fill="none" stroke="#78c1ff" stroke-width="1.1"/>
<path d="M16 48 C24 48 28 42 32 30 S38 16 40 16 S45 21 49 33 S56 48 64 48" fill="none" stroke="#e9c675" stroke-width="2.3" stroke-linecap="round"/>
<path d="M16 48 C23 48 24 34 28 34 S34 49 40 49 S51 36 55 36 S59 48 64 48" fill="none" stroke="#78c1ff" stroke-width="1.6" stroke-linecap="round"/>
<path d="M40 18 V57" fill="none" stroke="#e9c675" stroke-width="1" stroke-dasharray="2 4"/>
<circle cx="40" cy="56" r="2.3" fill="#e9c675"/>
</svg>
